<?xml version="1.0" encoding="UTF-8" standalone="no"?>
<svg
   xmlns:dc="http://purl.org/dc/elements/1.1/"
   xmlns:cc="http://creativecommons.org/ns#"
   xmlns:rdf="http://www.w3.org/1999/02/22-rdf-syntax-ns#"
   xmlns:svg="http://www.w3.org/2000/svg"
   xmlns="http://www.w3.org/2000/svg"
   xmlns:sodipodi="http://sodipodi.sourceforge.net/DTD/sodipodi-0.dtd"
   xmlns:inkscape="http://www.inkscape.org/namespaces/inkscape"
   aria-hidden="true"
   focusable="false"
   data-prefix="fas"
   data-icon="terminal"
   class="svg-inline--fa fa-terminal fa-w-20"
   role="img"
   viewBox="0 0 640 512"
   version="1.1"
   id="svg4"
   sodipodi:docname="terminal-solid.svg"
   inkscape:version="0.92.5 (2060ec1f9f, 2020-04-08)">
  <metadata
     id="metadata10">
    <rdf:RDF>
      <cc:Work
         rdf:about="">
        <dc:format>image/svg+xml</dc:format>
        <dc:type
           rdf:resource="http://purl.org/dc/dcmitype/StillImage" />
      </cc:Work>
    </rdf:RDF>
  </metadata>
  <defs
     id="defs8" />
  <sodipodi:namedview
     pagecolor="#ffffff"
     bordercolor="#666666"
     borderopacity="1"
     objecttolerance="10"
     gridtolerance="10"
     guidetolerance="10"
     inkscape:pageopacity="0"
     inkscape:pageshadow="2"
     inkscape:window-width="1611"
     inkscape:window-height="820"
     id="namedview6"
     showgrid="false"
     inkscape:zoom="0.434375"
     inkscape:cx="320"
     inkscape:cy="256"
     inkscape:window-x="0"
     inkscape:window-y="0"
     inkscape:window-maximized="0"
     inkscape:current-layer="svg4" />
  <path
     d="M 214.41964,218.8846 92.780447,334.33437 c -5.86656,5.56804 -15.37773,5.56804 -21.24366,0 L 57.348895,320.869 c -5.856542,-5.55854 -5.867809,-14.56733 -0.02504,-20.13894 l 96.402305,-91.9271 -96.401679,-91.92652 c -5.842772,-5.57161 -5.831506,-14.5804 0.02503,-20.138942 L 71.536787,83.272133 c 5.866556,-5.568045 15.377727,-5.568045 21.24366,0 L 214.41964,198.7219 c 5.86657,5.56745 5.86657,14.59466 0,20.1627 z m 239.10554,108.72867 v -19.00965 c 0,-7.87416 -6.72529,-14.25724 -15.02159,-14.25724 H 248.23012 c -8.2963,0 -15.02159,6.38308 -15.02159,14.25724 v 19.00965 c 0,7.87415 6.72529,14.25723 15.02159,14.25723 h 190.27347 c 8.2963,0 15.02159,-6.38308 15.02159,-14.25723 z"
     id="path2"
     inkscape:connector-curvature="0"
     style="fill:#008000;stroke-width:0.60976768" />
</svg>
