<?xml version="1.0" encoding="UTF-8" standalone="no"?>
<svg
   xmlns:dc="http://purl.org/dc/elements/1.1/"
   xmlns:cc="http://creativecommons.org/ns#"
   xmlns:rdf="http://www.w3.org/1999/02/22-rdf-syntax-ns#"
   xmlns:svg="http://www.w3.org/2000/svg"
   xmlns="http://www.w3.org/2000/svg"
   xmlns:sodipodi="http://sodipodi.sourceforge.net/DTD/sodipodi-0.dtd"
   xmlns:inkscape="http://www.inkscape.org/namespaces/inkscape"
   aria-hidden="true"
   focusable="false"
   data-prefix="fas"
   data-icon="tv"
   class="svg-inline--fa fa-tv fa-w-20"
   role="img"
   viewBox="0 0 640 512"
   version="1.1"
   id="svg4"
   sodipodi:docname="tv-solid.svg"
   inkscape:version="0.92.5 (2060ec1f9f, 2020-04-08)">
  <metadata
     id="metadata10">
    <rdf:RDF>
      <cc:Work
         rdf:about="">
        <dc:format>image/svg+xml</dc:format>
        <dc:type
           rdf:resource="http://purl.org/dc/dcmitype/StillImage" />
      </cc:Work>
    </rdf:RDF>
  </metadata>
  <defs
     id="defs8" />
  <sodipodi:namedview
     pagecolor="#ffffff"
     bordercolor="#666666"
     borderopacity="1"
     objecttolerance="10"
     gridtolerance="10"
     guidetolerance="10"
     inkscape:pageopacity="0"
     inkscape:pageshadow="2"
     inkscape:window-width="1421"
     inkscape:window-height="782"
     id="namedview6"
     showgrid="false"
     inkscape:zoom="0.434375"
     inkscape:cx="320"
     inkscape:cy="256"
     inkscape:window-x="0"
     inkscape:window-y="0"
     inkscape:window-maximized="0"
     inkscape:current-layer="svg4" />
  <path
     d="M 296,0 H 24 A 24,22.964029 0 0 0 0,22.964029 V 176.05755 a 24,22.964029 0 0 0 24,22.96403 h 120 v 15.30936 H 56 a 8,7.6546763 0 0 0 -8,7.65467 v 15.30935 a 8,7.6546763 0 0 0 8,7.65468 h 208 a 8,7.6546763 0 0 0 8,-7.65468 v -15.30935 a 8,7.6546763 0 0 0 -8,-7.65467 h -88 v -15.30936 h 120 a 24,22.964029 0 0 0 24,-22.96403 V 22.964029 A 24,22.964029 0 0 0 296,0 Z m -8,168.40288 H 32 V 30.618705 h 256 z"
     id="path2"
     style="fill:#008000;stroke-width:0.48908961"
     inkscape:connector-curvature="0" />
</svg>
